<?xml version="1.0" encoding="UTF-8"?>
<svg id="Layer_1" xmlns="http://www.w3.org/2000/svg" version="1.1" viewBox="0 0 168 40">
  <!-- Generator: Adobe Illustrator 29.8.2, SVG Export Plug-In . SVG Version: 2.1.1 Build 3)  -->
  <defs>
    <style>
      .st0 {
        fill: #fff;
      }
    </style>
  </defs>
  <path class="st0" d="M43.95,0h25.06c6.47.19,12.73,5.03,11.6,12.05-.7,4.33-4.69,6.66-8.45,8.04l9.04,19.9h-12.58l-6.82-15.32,6.47-14.49-12.16.06v15.98h4.9l-6.21,13.76h-10.86V0Z"/>
  <path class="st0" d="M35.87,0v10.19l-23.5.1v19.46h13.31v-12.1h12.29v22.35H11.95C4.98,39.72-.03,35.75.07,28.44c.19-5.71-.24-11.57,0-17.27C.35,4.34,4.84.45,11.5,0h24.36Z"/>
  <path class="st0" d="M130.25,0h24.87c13.85.78,17.66,18.83,4.96,24.76-3.98,1.86-8.29,1.43-12.57,1.47l7.13-16.05-12.16.06v15.98h4.97l-6.27,13.76h-10.92V0Z"/>
  <polygon class="st0" points="112.22 40 106.68 10.2 102.16 10.16 104.01 0 116.58 0 124.77 40 112.22 40"/>
  <polygon class="st0" points="102.1 10.26 96.88 40 84.39 40 90.38 10.26 102.1 10.26"/>
</svg>