<?xml version="1.0" encoding="UTF-8"?>
<svg id="Layer_1" xmlns="http://www.w3.org/2000/svg" version="1.1" viewBox="0 0 160 40" aria-label="THE GRAP">
  <!-- Generator: Adobe Illustrator 29.8.2, SVG Export Plug-In . SVG Version: 2.1.1 Build 3)  -->
  <path fill="currentColor" d="M18.35,27.51l-.29-.13H1.74c-2.01-.28-2.06-1.36-1.25-2.96C4.84,17.37,8.52,9.68,12.9,2.68,13.86,1.15,15.05.22,16.92.09c2.2-.14,4.84.07,7.1.06,7.65-.02,15.37-.06,23.01.03,1.62.3.77,1.92.3,2.87-.67,1.33-2.41,4.65-3.5,5.46-1.2.88-2.06.88-3.49.9-2.81.04-6.48.19-9.24-.04-3.17-.27,0-3.64.43-4.96.97-2.97-3.97-1.53-4.87-.17-3.01,4.99-6.01,10.04-8.85,15.14-.5.9-2.15,3.56-2.03,4.45.14,1.12,2.13.87,2.9.69.97-.23,1.83-.8,2.47-1.54,1.09-2.01,2.49-4.03,3.48-6.08.21-.44.56-.99.41-1.47-.25-.81-2.07-.35-1.45-1.87.38-.93,1.52-1.25,2.43-1.34,3.72-.38,8.05.32,11.83-.03,1.18.21,3.58-.54,3.18,1.48-4.55,8.68-9.64,17.11-14.5,25.63-.75.84-1.38,1.03-2.08.04-1.78-2.51-3.74-5.87-5.26-8.57-.16-.29-.85-1.57-.85-1.79v-1.45Z"/>
  <path fill="currentColor" d="M52.21,26.07c-.52.59-1.51,1.24-2.31,1.32-3.42-.2-7.12.25-10.5,0-.67-.05-1.63-.18-1.59-1.06.02-.53,1.05-2.26,1.36-2.83,3.61-6.68,7.56-13.61,11.47-20.12.33-.56.51-1.07.97-1.59,1.85-2.16,3.95-1.6,6.4-1.62,9.32-.05,18.78-.27,28.09-.06,1.81.04,3.38-.1,2.36,2.33-.49,1.18-2.1,4.18-2.85,5.18-.69.93-1.75,1.68-2.93,1.76-3.46-.07-7.05.21-10.49.05-1.32-.06-2.55-.15-1.92-1.87.37-1.02,1.94-2.94,1.87-3.94-.04-.6-.66-.83-1.17-.89-2.27-.24-5.08-.12-6.42,2.01-3.94,6.45-7.34,13.27-11.27,19.72-.31.51-.68,1.18-1.07,1.62Z"/>
  <path fill="currentColor" d="M123.5.09c-7.55,0-15.08.03-22.63.06-3.11.01-7.22-.92-8.96,2.39-3.98,7.5-8.64,14.67-12.53,22.22-.65,1.26-1.31,2.44.74,2.62,3.31.28,6.99-.21,10.33,0,1.04-.08,1.68-.48,2.29-1.29,1.39-1.84,2.28-4.34,3.64-6.24.56-.67,2.75-.76,3.46-.5.87.32.36,1.11.08,1.7-.83,1.76-2.19,3.41-2.77,5.26-.04.86.81,1.02,1.5,1.07,3.25.24,6.8-.19,10.08,0,.93-.14,1.83-.65,2.4-1.39l13.62-23.9c.56-1.31.2-1.94-1.24-1.99ZM109.43,3.68c-.11.92-2.67,5.13-3.31,6.26-1.08,1.92-2.2,3.83-3.31,5.74-.22.28-.59.59-.94.68-.47.12-2.59.18-2.92-.1-.36-.3-.05-.94.11-1.26,1.74-3.6,4.31-7.1,6.12-10.7.68-1.04,2.3-2.15,3.59-1.92.68.12.72.71.65,1.29Z"/>
  <path fill="currentColor" d="M159.54.38c-.53-.34-1.98-.3-2.67-.31-5.57-.09-11.16.06-16.73.07-2.64,0-5.87-.29-8.43-.05-1.2.11-2.26.74-3.05,1.63-4.54,8.14-9.42,16.13-13.82,24.35-.82,1.53-1.65,2.73-.88,4.52l5.44,9.16c.89.55,1.35-.2,1.79-.86,2.86-4.39,5.12-9.44,7.84-13.94.9-1.49,1.77-2.73,3.69-2.88,4.58-.36,9.52.36,14.12-.14,2.63-.63,3.82-3.99,5.05-6.14,2.39-4.17,4.93-8.39,7.19-12.62.37-.7,1.39-2.22.47-2.81ZM144.87,3.77c-2.43,4.9-5.29,9.62-7.95,14.42-.76,1.14-2.11,2.03-3.53,1.85-.17-.02-.52-.16-.61-.28-.46-.55.09-1.48.36-2.03,2.25-4.61,5.32-9.08,7.69-13.65.61-.85,1.74-1.63,2.81-1.71,1.08-.08,1.34.35,1.23,1.4Z"/>
</svg>
